# xmcd
#
# Track frame offsets:
#	300
#	7905
#	11736
#	31761
#	56513
#	79250
#	103105
#	125612
#	150154
#	169700
#	194790
#	218925
#	247703
#	271197
#	297368
#	315516
#
# Disc length: 4794 seconds
#
# Revision: 0
# Processed by: cddbd v1.5PL3 Copyright (c) Steve Scherf et al.
# Submitted via: audiograbber 1.82.01
#
DISCID=d012b610
DTITLE=У.эР.Асквад (ex - Убитые Рэпом) - Эпизод 1 От рассвета до заката
DYEAR=2003
DGENRE=rap
TTITLE0=Эпизод 1
TTITLE1=Утро
TTITLE2=Странные мысли. Три
TTITLE3=Ума - Помрачительный - День
TTITLE4=От рассвета до заката feat. Шeff
TTITLE5=Иллюзии больного feat. White Hot Ice
TTITLE6=Дорога в небо
TTITLE7=Всего лишь только вечер feat. Flanger
TTITLE8=Облака
TTITLE9=Открой небеса. Два
TTITLE10=Игра эфемерных чувств
TTITLE11=Далеко Далеко feat. Green Grey and Flanger
TTITLE12=Ушедшие с огнем feat. Туман
TTITLE13=Убитые говорят ...
TTITLE14=Вечер
TTITLE15=Data Track
EXTD=
EXTT0=
EXTT1=
EXTT2=
EXTT3=
EXTT4=
EXTT5=
EXTT6=
EXTT7=
EXTT8=
EXTT9=
EXTT10=
EXTT11=
EXTT12=
EXTT13=
EXTT14=
EXTT15=
PLAYORDER=
